<svg width="310" height="115" viewBox="0 0 310 115" fill="none" xmlns="http://www.w3.org/2000/svg">
<path d="M45.7413 1C45.3863 6.9037 43.8484 12.6761 41.2188 17.975C36.3207 27.7472 41.768 40.695 50.8707 40.5506H51.622" stroke="#AEDEF8" stroke-width="1.7" stroke-miterlimit="10"/>
<path d="M54.8752 13.5263C56.1539 12.9857 56.8803 11.8153 56.4978 10.9123C56.1152 10.0093 54.7685 9.71558 53.4898 10.2562C52.2111 10.7969 51.4847 11.9672 51.8673 12.8702C52.2498 13.7732 53.5965 14.067 54.8752 13.5263Z" fill="#AEDEF8"/>
<path d="M31.2203 8.07292C39.2827 4.47872 19.9213 33.6654 22.7388 52.9643C24.1837 62.5344 37.1877 55.3172 37.7512 67.3989" stroke="#AEDEF8" stroke-width="1.7" stroke-miterlimit="10"/>
<path d="M10.8474 41.7776C21.7707 60.5425 15.4132 83.0604 37.7512 69.1022" stroke="#AEDEF8" stroke-width="1.7" stroke-miterlimit="10"/>
<path d="M40.1208 2.94864C41.3778 12.3455 25.5996 42.4704 33.4742 48.3886C38.7625 52.3581 41.5511 47.7246 48.4577 43.0478" stroke="#AEDEF8" stroke-width="1.7" stroke-miterlimit="10"/>
<path d="M41.2622 89.1084C36.0462 83.5223 33.2287 90.7251 34.0378 94.9689C34.8469 99.2126 30.4978 101.811 30.4978 101.811" stroke="#AEDEF8" stroke-width="1.7" stroke-miterlimit="10"/>
<path d="M44.0798 109.851C44.0798 109.851 38.1268 97.4516 44.0798 95.6906" stroke="#AEDEF8" stroke-width="1.7" stroke-miterlimit="10"/>
<path d="M21.0193 89.0796C21.0193 89.0796 28.0415 95.4452 29.0384 85.8462C30.0354 76.2473 38.1701 77.4597 38.1701 77.4597" stroke="#AEDEF8" stroke-width="1.7" stroke-miterlimit="10"/>
<path d="M98.0029 65.1038C106.369 73.7645 101.745 86.3659 101.745 86.3659C97.237 99.357 91.3563 105.91 87.2962 108.292C73.0497 116.837 56.9537 114.917 42.8949 109.504C27.5503 103.615 16.4969 85.0523 13.1447 72.8407C11.7548 67.5792 10.7457 62.2246 10.125 56.8184C9.65442 49.812 10.2783 42.7751 11.9744 35.9604C18.2741 12.0713 38.7192 1.11546 49.5414 1.31754C52.9802 1.11546 66.88 3.6415 70.1744 8.05847C70.4778 8.46264 63.9325 18.0183 64.496 18.7833L71.9226 16.0408C73.5698 17.975 62.5742 29.8258 60.3636 32.092C50.7551 41.9075 45.4812 44.4768 41.5801 52.5169C40.3192 55.231 39.3505 58.0713 38.6903 60.99C37.9078 64.5824 37.5634 68.2562 37.6645 71.9313C37.7672 77.4319 38.808 82.8747 40.7421 88.0258C42.4064 92.3614 44.7955 96.3833 47.8075 99.9199C51.4324 104.134 56.1007 107.325 61.3462 109.172C73.122 113.676 83.0194 109.909 87.3541 108.292C91.5011 106.73 95.3698 104.513 98.812 101.724C102.3 98.8433 105.347 95.4684 107.857 91.7067C113.518 83.7246 116.831 74.3199 117.422 64.5553C117.624 61.3941 118.275 46.5987 110.646 34.2427C108.637 30.5715 105.71 27.4831 102.15 25.2789C98.337 23.1501 93.8465 22.5809 89.6225 23.6911C89.0445 23.8499 88.6255 24.0086 88.1776 24.153C86.5882 24.7448 81.3 34.3726 73.0786 37.3606C70.1888 38.4288 65.6085 39.2515 65.0161 45.1697C63.6579 58.6804 62.1264 62.2458 61.1294 65.7245C59.2655 72.3355 55.2343 70.4446 53.5582 70.228C53.3259 70.2261 53.0977 70.2884 52.8987 70.4082C52.6998 70.5279 52.5379 70.7004 52.4312 70.9065C51.9254 72.1045 53.6593 74.4862 54.035 75.0059C55.233 76.8493 57.0206 78.2332 59.1065 78.9321C63.1088 80.0147 68.2526 73.8367 67.588 75.7421C65.753 81.0973 72.0094 82.7428 76.6619 73.5913L77.3409 71.9025C79.8406 86.337 90.3449 65.2193 90.3449 65.2193C90.3764 65.7119 90.5199 66.191 90.7645 66.6199C91.0091 67.0489 91.3484 67.4165 91.7565 67.6948C92.1647 67.9731 92.631 68.1548 93.1199 68.2261C93.6089 68.2974 94.1078 68.2564 94.5785 68.1062C96.4857 67.6154 109.75 54.812 94.5785 43.3509L95.3153 43.553" stroke="#AEDEF8" stroke-width="1.7" stroke-miterlimit="10"/>
<path d="M94.6652 43.5241L95.3731 43.6252C96.466 43.7223 97.5564 43.414 98.4363 42.7591C101.716 40.5506 103.334 32.1786 101.225 34.9067C97.5693 39.6701 91.5731 37.5194 89.5791 33.1168C86.9495 27.343 92.0499 23.2869 92.0499 23.2869" stroke="#AEDEF8" stroke-width="1.7" stroke-miterlimit="10"/>
<path d="M101.037 61.1054C101.572 64.1223 114.431 79.6683 93.2636 103.904C93.2636 103.904 121.728 82.8727 101.355 52.3148" stroke="#AEDEF8" stroke-width="1.7" stroke-miterlimit="10"/>
<path d="M98.4363 42.7591C133.735 76.9401 93.1047 104.467 93.1047 104.467" stroke="#AEDEF8" stroke-width="1.7" stroke-miterlimit="10"/>
<path d="M110.559 87.4629C110.559 87.4629 126.265 54.5088 101.774 37.274" stroke="#AEDEF8" stroke-width="1.7" stroke-miterlimit="10"/>
<path d="M88.8423 29.3206C88.8423 29.3206 106.325 24.3984 115.616 46.0213" stroke="#AEDEF8" stroke-width="1.7" stroke-miterlimit="10"/>
<path d="M28.1138 10.5701C28.1138 10.5701 7.004 19.3318 1.87466 40.5506C-3.25468 61.7694 15.0086 105.001 34.9047 105.261" stroke="#AEDEF8" stroke-width="1.7" stroke-miterlimit="10"/>
<path d="M16.916 23.9076C16.916 23.9076 0.819993 38.3421 1.02228 46.3389" stroke="#AEDEF8" stroke-width="1.7" stroke-miterlimit="10"/>
<path d="M11.3242 42.5137C11.3242 42.5137 2.82831 46.1657 1.44122 55.5048" stroke="#AEDEF8" stroke-width="1.7" stroke-miterlimit="10"/>
<path d="M10.8474 58.4062C10.8474 58.4062 6.23822 57.9587 5.16901 71.3106" stroke="#AEDEF8" stroke-width="1.7" stroke-miterlimit="10"/>
<path d="M14.1417 75.8719C12.3267 78.8814 11.4607 82.367 11.6566 85.8751" stroke="#AEDEF8" stroke-width="1.7" stroke-miterlimit="10"/>
<path d="M20.6436 89.7724C20.6436 89.7724 18.9098 93.1934 21.0193 98.4331" stroke="#AEDEF8" stroke-width="1.7" stroke-miterlimit="10"/>
<path d="M141.595 79.2496C138.419 79.2458 135.375 77.9839 133.129 75.7406C130.884 73.4973 129.621 70.4559 129.617 67.2834V39.7134C129.621 39.1991 129.828 38.7072 130.193 38.3448C130.559 37.9825 131.053 37.7792 131.568 37.7792H141.595C141.758 37.7563 141.923 37.7563 142.086 37.7792C145.036 38.0858 147.767 39.472 149.755 41.6707C151.742 43.8694 152.845 46.7252 152.851 49.6877C152.831 51.0782 152.525 52.4497 151.951 53.7164C151.376 54.9831 150.546 56.1177 149.513 57.0493C151.481 57.9025 153.154 59.3157 154.323 61.1126C155.492 62.9094 156.106 65.0105 156.087 67.1535C156.083 70.326 154.82 73.3674 152.575 75.6107C150.329 77.854 147.285 79.1159 144.109 79.1197L141.595 79.2496ZM133.518 41.7198V55.7935H142.852C144.447 55.7791 145.975 55.1464 147.112 54.0289C148.25 52.9115 148.908 51.3964 148.949 49.8032C148.949 47.6593 148.097 45.6033 146.58 44.0874C145.062 42.5715 143.004 41.7198 140.858 41.7198H133.518ZM141.595 75.4101H144.109C146.253 75.4101 148.308 74.5604 149.825 73.0476C151.342 71.5348 152.197 69.4825 152.2 67.3411C152.2 62.7654 148.444 59.6908 142.852 59.6908H133.518V67.3411C133.537 69.47 134.396 71.5053 135.908 73.0053C137.42 74.5052 139.464 75.3486 141.595 75.3523V75.4101Z" fill="#AEDEF8"/>
<path d="M159.251 69.5207V39.7134C159.293 39.2274 159.516 38.7748 159.876 38.445C160.236 38.1153 160.707 37.9323 161.195 37.9323C161.683 37.9323 162.154 38.1153 162.513 38.445C162.873 38.7748 163.096 39.2274 163.138 39.7134V69.5207C163.157 71.0462 163.772 72.504 164.852 73.5827C165.932 74.6615 167.391 75.2758 168.918 75.2946C169.435 75.2946 169.931 75.4999 170.297 75.8653C170.663 76.2308 170.868 76.7264 170.868 77.2432C170.868 77.76 170.663 78.2557 170.297 78.6211C169.931 78.9866 169.435 79.1919 168.918 79.1919C166.357 79.173 163.908 78.1475 162.099 76.3375C160.289 74.5275 159.267 72.0785 159.251 69.5207Z" fill="#AEDEF8"/>
<path d="M175.709 69.5208V48.1288C175.709 47.612 175.914 47.1163 176.28 46.7509C176.646 46.3854 177.142 46.1801 177.659 46.1801C178.177 46.1801 178.673 46.3854 179.039 46.7509C179.404 47.1163 179.61 47.612 179.61 48.1288V69.5208C179.61 71.0521 180.219 72.5207 181.303 73.6035C182.387 74.6863 183.857 75.2946 185.389 75.2946H187.34C188.873 75.2946 190.343 74.6863 191.427 73.6035C192.511 72.5207 193.12 71.0521 193.12 69.5208V48.1288C193.12 47.612 193.325 47.1163 193.691 46.7509C194.057 46.3854 194.553 46.1801 195.07 46.1801C195.588 46.1801 196.084 46.3854 196.449 46.7509C196.815 47.1163 197.021 47.612 197.021 48.1288V69.5208C197.017 72.0998 195.99 74.5722 194.164 76.3959C192.339 78.2196 189.864 79.2458 187.282 79.2497H185.332C182.77 79.2155 180.325 78.1759 178.524 76.3555C176.724 74.5351 175.712 72.08 175.709 69.5208V69.5208Z" fill="#AEDEF8"/>
<path d="M201.904 69.5208V55.909C201.904 53.3287 202.931 50.8542 204.757 49.0296C206.583 47.2051 209.06 46.1801 211.643 46.1801H213.594C216.174 46.1839 218.647 47.2106 220.47 49.0347C222.294 50.8588 223.318 53.3312 223.318 55.909C223.318 64.1656 222.118 64.6563 212.611 64.6563H205.791V69.5208C205.81 71.0463 206.425 72.504 207.505 73.5828C208.585 74.6615 210.044 75.2759 211.571 75.2946H213.521C215.054 75.2946 216.524 74.6863 217.608 73.6035C218.692 72.5207 219.301 71.0521 219.301 69.5208C219.278 69.2517 219.311 68.9808 219.398 68.7252C219.485 68.4696 219.624 68.2349 219.807 68.0359C219.99 67.8369 220.212 67.678 220.459 67.5694C220.707 67.4607 220.974 67.4045 221.244 67.4045C221.515 67.4045 221.782 67.4607 222.029 67.5694C222.277 67.678 222.499 67.8369 222.682 68.0359C222.864 68.2349 223.004 68.4696 223.091 68.7252C223.178 68.9808 223.211 69.2517 223.188 69.5208C223.188 72.0985 222.164 74.5709 220.34 76.395C218.517 78.2191 216.044 79.2458 213.464 79.2497H211.513C208.953 79.2155 206.509 78.1754 204.711 76.3546C202.912 74.5338 201.904 72.0787 201.904 69.5208ZM205.791 60.7734H212.611C215.775 60.7734 218.521 60.7734 219.084 60.326C219.431 60.0517 219.431 57.8577 219.431 55.909C219.427 54.3721 218.819 52.8981 217.738 51.8047C216.657 50.7112 215.19 50.0857 213.651 50.063H211.701C210.163 50.0857 208.695 50.7112 207.614 51.8047C206.533 52.8981 205.925 54.3721 205.921 55.909L205.791 60.7734Z" fill="#AEDEF8"/>
<path d="M250.496 39.7134C250.496 40.2303 250.29 40.7259 249.925 41.0914C249.559 41.4568 249.063 41.6621 248.545 41.6621H231.987V56.5585H243.994C244.511 56.5585 245.007 56.7638 245.373 57.1293C245.739 57.4947 245.945 57.9904 245.945 58.5072C245.945 59.024 245.739 59.5197 245.373 59.8851C245.007 60.2506 244.511 60.4559 243.994 60.4559H231.987V77.301C232.01 77.57 231.977 77.8409 231.89 78.0966C231.803 78.3522 231.664 78.5869 231.481 78.7859C231.298 78.9849 231.076 79.1437 230.829 79.2524C230.581 79.3611 230.314 79.4172 230.044 79.4172C229.773 79.4172 229.506 79.3611 229.259 79.2524C229.011 79.1437 228.789 78.9849 228.606 78.7859C228.424 78.5869 228.284 78.3522 228.197 78.0966C228.11 77.8409 228.077 77.57 228.1 77.301V39.7712C228.1 39.5159 228.151 39.2632 228.249 39.0276C228.347 38.792 228.491 38.5781 228.672 38.3983C228.854 38.2185 229.069 38.0764 229.305 37.98C229.542 37.8837 229.795 37.835 230.051 37.8369H248.545C249.05 37.8366 249.536 38.032 249.9 38.3819C250.264 38.7319 250.477 39.2092 250.496 39.7134V39.7134Z" fill="#AEDEF8"/>
<path d="M253.646 41.5322V39.7134C253.646 39.1966 253.851 38.701 254.217 38.3355C254.583 37.9701 255.079 37.7648 255.596 37.7648C256.114 37.7648 256.61 37.9701 256.976 38.3355C257.342 38.701 257.547 39.1966 257.547 39.7134V41.5322C257.547 42.049 257.342 42.5446 256.976 42.9101C256.61 43.2755 256.114 43.4808 255.596 43.4808C255.079 43.4808 254.583 43.2755 254.217 42.9101C253.851 42.5446 253.646 42.049 253.646 41.5322V41.5322ZM253.646 77.301V48.1288C253.646 47.612 253.851 47.1163 254.217 46.7509C254.583 46.3854 255.079 46.1801 255.596 46.1801C256.114 46.1801 256.61 46.3854 256.976 46.7509C257.342 47.1163 257.547 47.612 257.547 48.1288V77.301C257.547 77.8178 257.342 78.3135 256.976 78.6789C256.61 79.0444 256.114 79.2496 255.596 79.2496C255.079 79.2496 254.583 79.0444 254.217 78.6789C253.851 78.3135 253.646 77.8178 253.646 77.301V77.301Z" fill="#AEDEF8"/>
<path d="M279.827 69.5208C279.827 66.4029 277.761 65.6812 272.689 64.6996C268.355 63.848 262.301 62.6788 262.301 55.909C262.301 53.3287 263.327 50.8542 265.153 49.0296C266.979 47.2051 269.456 46.1801 272.039 46.1801H273.975C276.558 46.1801 279.035 47.2051 280.861 49.0296C282.688 50.8542 283.714 53.3287 283.714 55.909C283.672 56.395 283.449 56.8476 283.089 57.1774C282.729 57.5071 282.259 57.6901 281.771 57.6901C281.282 57.6901 280.812 57.5071 280.452 57.1774C280.092 56.8476 279.869 56.395 279.827 55.909C279.823 54.3721 279.216 52.8981 278.135 51.8047C277.054 50.7112 275.586 50.0857 274.048 50.063H272.111C270.561 50.0668 269.074 50.6839 267.978 51.7795C266.881 52.875 266.263 54.3597 266.26 55.909C266.26 59.1568 268.355 59.8785 273.484 60.8889C277.819 61.7261 283.757 62.8809 283.757 69.5496C283.757 72.1299 282.731 74.6045 280.905 76.429C279.079 78.2535 276.601 79.2785 274.019 79.2785H272.083C269.5 79.2785 267.023 78.2535 265.196 76.429C263.37 74.6045 262.344 72.1299 262.344 69.5496C262.321 69.2806 262.354 69.0097 262.441 68.7541C262.528 68.4985 262.667 68.2637 262.85 68.0647C263.033 67.8657 263.255 67.7069 263.502 67.5982C263.75 67.4895 264.017 67.4334 264.287 67.4334C264.558 67.4334 264.825 67.4895 265.072 67.5982C265.32 67.7069 265.542 67.8657 265.725 68.0647C265.907 68.2637 266.047 68.4985 266.134 68.7541C266.221 69.0097 266.254 69.2806 266.231 69.5496C266.25 71.0875 266.875 72.556 267.97 73.6368C269.065 74.7176 270.543 75.3236 272.083 75.3234H274.019C275.556 75.3121 277.026 74.6971 278.113 73.6114C279.2 72.5256 279.816 71.0562 279.827 69.5208V69.5208Z" fill="#AEDEF8"/>
<path d="M288.496 76.6514V39.7134C288.538 39.2274 288.761 38.7748 289.121 38.445C289.481 38.1153 289.952 37.9323 290.44 37.9323C290.928 37.9323 291.399 38.1153 291.758 38.445C292.118 38.7748 292.341 39.2274 292.383 39.7134V48.1432C294.048 46.8842 296.075 46.1957 298.163 46.1801H300.113C302.696 46.1801 305.173 47.2051 306.999 49.0296C308.826 50.8541 309.852 53.3287 309.852 55.909V76.6514C309.81 77.1374 309.587 77.59 309.227 77.9198C308.867 78.2496 308.397 78.4325 307.908 78.4325C307.42 78.4325 306.95 78.2496 306.59 77.9198C306.23 77.59 306.007 77.1374 305.965 76.6514V55.909C305.961 54.3721 305.354 52.8981 304.273 51.8046C303.192 50.7112 301.724 50.0857 300.186 50.063H298.235C296.697 50.0857 295.229 50.7112 294.148 51.8046C293.067 52.8981 292.459 54.3721 292.455 55.909V76.6514C292.413 77.1374 292.19 77.59 291.831 77.9198C291.471 78.2496 291 78.4325 290.512 78.4325C290.024 78.4325 289.553 78.2496 289.193 77.9198C288.834 77.59 288.611 77.1374 288.569 76.6514H288.496Z" fill="#AEDEF8"/>
</svg>
